<?xml version="1.0" encoding="UTF-8"?>
<svg xmlns="http://www.w3.org/2000/svg" viewBox="0 0 457.99 457.99">
  <circle cx="229" cy="229" r="229" fill="#fff"/>
  <g>
    <path d="M130.08,325.35c4.18,8.2,10.66,14.48,19.04,20.8-12.83-2.75-25.44-13.98-30.72-27.85,5.39-.75,8.76,1.32,11.67,7.05Z" fill="#e3a4e3" />
    <path d="M179.27,296.36c3.05-1.7,5.66-4.13,8.18-6.47,1.39-1.29,2.82-2.62,4.28-3.79,10.68-8.51,18.33-19.74,26.24-31.7,6.24,21.19,6.99,36.95,2.57,52.24-3.27,11.31-10.25,17.29-20.19,17.29h-.09c-9.14-.04-16.45-4.6-22.99-14.37-2.54-3.8-3.43-6.25-2.96-8.19.42-1.75,2.04-3.39,4.96-5.02Z" fill="#fbddd3" />
    <path d="M292.44,194.47c-.06.51-.1,1.06-.15,1.62-.14,1.83-.29,3.9-1.34,4.39-.56.24-1.21-.35-2.48-1.8-.53-.6-1.08-1.23-1.68-1.72-6.86-5.62-13.13-10.56-20.43-14.22-3.66-1.83-4.61-3.81-4.05-8.46,2.03-17.06-.06-30.06-7-43.02.96.06,1.83.49,2.89,1.01l.27.13c23.09,11.37,37.06,36.89,33.97,62.07Z" fill="#fcd570" />
    <path d="M164.12,173.27c4.45-27.21,31.05-48.48,60.35-48.48h.12c-4.89,4.12-9.48,8.11-13.22,13.04-4.52,5.97-10.06,14.05-12.83,23.69-.72,2.5-1.18,3.45-3.26,3.56-9.77.52-19.73,3.13-31.17,8.19Z" fill="#fcd570" />
    <path d="M254.7,163.25c.02,6.09.03,10.49-1.07,11.25-1.04.72-4.92-.73-9.83-2.56-10.8-4.03-22.16-6.4-34.74-7.25-2.32-.16-2.77-.49-2.85-.62-.01-.02-.27-.47.56-2.39,5.56-12.92,13.73-23.31,24.28-30.87,2.8-2.01,5.4-3.02,7.74-3.02.59,0,1.16.06,1.71.19,2.87.65,5.44,3.02,7.65,7.04,5.03,9.18,6.13,19.41,6.53,28.22Z" fill="#fcd570" />
    <path d="M79.04,174.63l-.34.5c-3.57,5.37-9.37,7.45-15.12,8.89-1.41.17-2.18-.59-3.51-2.22-.65-.8-.78-1.49.33-3.05,3.32-4.72,8.2-7.88,14.89-9.65.26-.07.51-.1.76-.1,1.81,0,3.32,1.65,3.94,2.43.58.73.25,1.48-.94,3.21Z" fill="#e3a4e3" />
    <path d="M184.28,91.93c-.61-.17-1.31-.36-1.59-.62l-.24-.23c-.61-.58-2.23-2.12-2.23-2.7.03-.54,1.75-.68,2.58-.75l.41-.03c4.53-.42,8.96-.63,13.29-.63,15.55,0,29.88,2.7,43.5,8.17l.52.2c1.9.74,2.79,1.23,2.71,2.02-.09.82-1.2,1.04-3.22,1.16l-.3.02c-3.27.2-6.63.16-9.89.13-1.33-.02-2.67-.03-4-.03h-.07c-12.52.6-25.4-1.45-40.57-6.43-.29-.1-.6-.18-.91-.27Z" fill="#fcd570" />
    <path d="M254.79,98.4c13.78-5.67,51.25-4,63.69,2.83-12.34,6.01-51.37,4.26-63.69-2.83Z" fill="#fcd570" />
    <path d="M367.16,216.98c-20.08-19.04-47.2-20.44-69.11-3.58-6.73,5.18-11.85,11.63-15.98,17.25-.14.19-.26.41-.39.64-.66,1.17-2.04,3.61-5.64,2.17l-1.32-.52.5-1.33c2.55-6.83,6.18-12.37,10.79-16.46,1.79-1.59,2.67-2.89,2.67-3.95,0-1.32-1.37-2.81-3.43-4.63-25.51-22.61-52.37-33.79-82.11-34.17-18.9-.2-34.9,4.86-47.68,15.16-15.04,12.13-23.96,29.01-26.52,50.18-.48,3.93-.28,5.05-.04,5.3.18.1,1.05.18,4.72-1.42,14.06-6.11,27.2-4.3,40.18,5.55l.21.16c2.18,1.65,5.84,4.41,3.67,8.02-.59.98-1.36,1.34-1.91,1.48-1.55.38-3.07-.56-4.42-1.38-.46-.28-.91-.56-1.33-.75-.17-.08-.34-.16-.51-.24-.35-.17-.59-.28-.77-.34.04.29.17.63.38,1.15.22.52.46,1.11.57,1.77.06.37.13.73.19,1.1.46,2.53,1.04,5.67-1.48,8.31-.91.95-2.98,1.29-4.18.67-3.25-1.66-2.85-4.59-2.59-6.52.09-.64.17-1.24.14-1.74-.42-7.73-2.93-11.1-9.03-11.63.21.36.43.72.64,1.08,1.55,2.63,3.01,5.11,4.15,7.83,1.2,2.89,1.36,5.09.49,6.72-.66,1.24-1.86,2.04-3.55,2.38-1.59.32-2.75.11-3.58-.62-1.24-1.1-1.12-2.85-1.03-4.25.04-.54.08-1.09.02-1.42-.7-4.2-2.82-7.42-5.83-8.84-2.16-1.02-4.63-1.03-7.1-.06,4.14,4.97,5.53,10.88,4.13,17.6-.06.28-.11.58-.17.88-.38,2.12-1.1,6.07-5.36,5.36-1.33-.23-2.27-.78-2.78-1.64-.8-1.36-.25-2.92.19-4.17.17-.47.32-.92.38-1.27,1.15-6.54-.36-10.95-4.74-13.88-1.84-1.23-3.78-1.53-5.31-.81-1.43.67-2.34,2.13-2.54,4.11-.51,4.96-2.61,8.96-6.23,11.88-2.1,1.7-3.94,1.81-5.47.33-1.55-1.5-1.57-3.69-.04-5.58l.42-.53c1.64-2.02,3.05-3.77,3.39-6.2.08-.56.2-1.12.32-1.67.47-2.09.68-3.04-1.47-4.14-2.97-1.53-4.37-1.35-6.26.82-1.53,1.76-3.54,3.41-5.97,4.91l-.36.23c-1.66,1.04-5.09,3.19-7.46-.49-.78-1.21-1.02-2.29-.75-3.29.42-1.51,1.86-2.23,3.01-2.8.36-.18.73-.36,1.05-.56,4.24-2.73,6.21-4.76,6.6-6.79.33-1.73-.4-3.85-2.42-6.93-1.97,2.01-4.34,3.93-7.53,4.67-.24.05-.48.14-.73.22-1.12.37-3.74,1.23-4.94-1.69-.49-1.19-.84-3.51,2.39-5.63.69-.45,1.4-.88,2.11-1.31,1.2-.73,2.34-1.42,3.39-2.22.68-.53,2.17-1.92,1.34-3.4-.14-.24-.23-.3-.23-.3-.19-.02-.78.3-1.14.49-.46.24-.94.48-1.46.62-.45.13-.91.28-1.36.43-2.92.95-7.34,2.39-9.5-3.71l-.33-.92.74-.65c1.76-1.55,3.85-1.78,5.69-1.98,1.06-.11,2.05-.22,2.92-.55,2.68-1.03,3.44-1.99,3.39-4.3-.07-2.79-.01-5.61.04-8.35.06-2.94.12-5.99.02-8.96-.25-7.67-.95-15.69-6.11-22.72-4.05,8.14-10.55,13.37-19.37,15.57-1.71.43-2.07.78-2.14.91-.21.37.21,1.81.43,2.58,2.3,7.85,3.03,15.34,2.25,22.9-2.64,25.45-2.18,46.52,8.67,66.63,12.71,23.56,37.44,29.63,50.93,26.42,15.75-3.75,29.48-10.78,42.2-17.66,9.38-5.08,18.85-13.44,27.38-24.18.79-.99,1.6-1.99,2.41-2.98,3.93-4.82,7.99-9.78,10.29-15.71-3.02-.36-5.58.81-8.28,2.04-1.86.85-3.79,1.73-5.93,2.14l-2.19.41.5-2.17c.1-.44.16-.81.21-1.13.11-.75.22-1.46.75-2.06,5.59-6.29,13.34-8.04,23.7-5.35,8.75,2.27,15.25,8.37,18.3,17.19.84,2.42.08,4.42-1.98,5.22-3.38,1.31-4.89-1.78-5.38-2.79-.28-.58-.53-1.18-.78-1.79-.54-1.31-1.03-2.51-1.88-3.5,3.33,13.27,3.69,25.82,3.6,35.49-.07,7.68-1.93,15.21-5.53,22.41-3.96,7.91-10.63,13.39-18.77,15.44-8.43,2.13-17.66.25-25.33-5.13-7.43-5.22-11.49-12.35-14.78-19.29-.77-1.62-1.47-2.51-2.1-2.65-.07-.01-.14-.02-.22-.02-.58,0-1.4.43-2.4,1.25-6.88,5.69-15.1,9.09-24.42,10.09-2.55.27-2.95.85-3.01.96-.13.27-.11,1.09,1.45,3.62,9.46,15.26,23.09,25.7,40.49,31.02,36.49,11.16,85.64-4.05,108.96-54.71,6.86-14.89,9.01-31.75,6.23-48.75-.14-.84-.19-1.68-.24-2.49-.12-1.88-.23-3.55-1.31-4.93-1.25,1.27-2.13,2.93-3.05,4.66-1.18,2.23-2.41,4.53-4.55,6.51l-2.05,1.9-.38-2.76c-.74-5.4,1.46-9.04,3.39-12.25.24-.4.48-.8.72-1.2,9.9-16.99,30.72-27.27,49.51-24.46,21.31,3.19,39.75,19.36,43.85,38.45l.14.62c.47,2.05,1.46,6.31-2.93,7.33-1.13.27-2.14.12-3-.42-1.59-1.01-2.15-3.09-2.55-4.96-2.98-13.85-12.83-25.23-26.37-30.42-14.01-5.37-29.57-3.37-41.63,5.37-3.61,2.62-4.91,4.06-3.18,7.9,1.57,3.47,1.92,7.41,2.26,11.23l.08.89c2.32,25.28-3.1,47.55-16.1,66.19-3.82,5.49-2.59,8.51.92,13.66,10,14.66,24.22,23.64,40.04,25.28,15.1,1.56,29.92-3.83,41.76-15.2,15.29-14.69,24.02-36.88,23.94-60.89-.08-23.95-8.92-46.03-24.25-60.57ZM238.31,242.79c-.33,2.93-1.61,4.41-3.82,4.41-.12,0-.24,0-.37-.01-1.68-.12-2.61-.89-3.09-1.52-.78-1.03-1.03-2.43-.7-4.07.62-3.13.9-5.79.25-8.56-1.24-5.24-2.87-8.11-7.91-8.31-4.78-.18-8.09,1.96-10.68,6.99-.33.63-.56,1.37-.8,2.15-.54,1.73-1.15,3.7-3.03,5.26l-1.74,1.45-.59-2.19c-2.34-8.77,2.87-18.2,11.37-20.59,8.59-2.42,16.73,1.68,19.8,9.96,2.02,5.44,1.79,10.66,1.3,15.06Z" fill="#e3a4e3" />
  </g>
  <g>
    <path d="M388.28,224.22c-19.71-28.17-52.89-37.03-80.7-21.54-.29.16-.58.35-.88.55-1.19.78-1.47.84-1.76.63-.28-.2-.31-.47.03-1.8.1-.39.19-.77.25-1.14,5.63-34.06-12.93-66.15-45.12-78.05-4.04-1.49-6.47-2.39-7.08-3.53-.6-1.14.02-3.64,1.07-7.79.03-.12.08-.24.13-.36.11-.29.26-.65.31-1.09.2-1.59.55-2.56,1.04-2.86.55-.35,1.75-.22,3.57.39,14.76,4.91,30.63,6.85,48.51,5.95,6.77-.34,14.45-.73,21.33-4.39,4.07-2.17,5-4.66,5.06-6.37.06-1.71-.68-4.26-4.57-6.71-1.55-.97-3.08-1.69-4.55-2.15-23.58-7.29-46.6-8.12-68.41-2.45-1.83.47-3.04.7-4.58-.15-17.14-9.43-35.59-11.14-49.75-11.58h-.07c-1.18.02-2.35.03-3.52.03-5.48.02-10.65.03-15.8,1.87-2.54.91-6.79,2.43-6.89,7.61-.09,4.96,3.54,7.06,6.28,8.21,22.26,9.34,42.86,12.59,62.92,9.95.25-.03.51-.08.78-.13,1.53-.27,1.73-.17,1.94.23.45.88.02,3.13-1.67,5.74-1.75,2.69-4.16,4.6-5.55,4.55-7.2-.46-15.6-.81-24.05.8-29.62,5.65-51.32,28.03-55.27,57.03-.23,1.69-1.07,2.9-2.22,4.55-2.29,3.29-5.42,5.93-8.45,8.48-2.59,2.18-5.28,4.44-7.49,7.15-10.4,12.67-15.87,27.86-16.29,45.15-.07,2.79-.61,3.75-1.05,4.06-.81.56-2.78,0-4.42-.55-1.65-.55-3.03-1.46-4.32-2.85-9.25-9.92-10.24-22.56-9.99-33.61.19-8.66.39-17.61-2.74-26.2-2.94-8.07-7.74-17.41-18.82-18.01-11.82-.65-21.31,4-27.46,13.4-2.84,4.35-2.7,8.53.39,11.47,8.81,8.39,8.87,19.35,7.77,28.96-2.07,18.09-1.87,32.75.62,46.14,4.77,25.59,17.5,43.13,37.84,52.11,6.15,2.72,9.76,5.96,12.9,11.58,12.11,21.66,28.19,31.23,49.13,29.26,1.97-.18,3.77.54,5.68,1.3l.7.28c10.32,4.04,20.98,6.07,31.89,6.07,7.87,0,15.86-1.05,23.95-3.16,18.41-4.81,34.63-14.43,48.19-28.62,1.84-1.92,2.76-2.24,3.21-2.18.34.05,1.08.45,2.17,2.57.58,1.11,1.35,2.06,2.11,2.97.27.33.55.66.8,1,13.37,17.3,32.19,27.07,51.54,26.68,19.43-.35,37.92-10.77,50.71-28.6,22.56-31.45,22.84-79.1.63-110.84ZM290.67,329.64c-3.51-5.14-4.74-8.17-.92-13.66,13-18.64,18.41-40.91,16.1-66.19l-.08-.89c-.34-3.82-.69-7.76-2.26-11.23-1.74-3.84-.44-5.28,3.18-7.9,12.07-8.74,27.63-10.74,41.63-5.37,13.54,5.19,23.39,16.56,26.37,30.42.4,1.87.96,3.95,2.55,4.96.86.55,1.87.69,3,.42,4.39-1.02,3.4-5.28,2.93-7.33l-.14-.61c-4.1-19.09-22.54-35.26-43.85-38.45-18.79-2.81-39.62,7.47-49.51,24.46-.23.4-.47.8-.72,1.2-1.93,3.21-4.13,6.85-3.39,12.25l.38,2.76,2.05-1.9c2.14-1.98,3.37-4.29,4.55-6.51.92-1.73,1.8-3.39,3.05-4.66,1.08,1.39,1.19,3.05,1.31,4.93.05.81.11,1.65.24,2.49,2.78,17,.62,33.86-6.23,48.75-23.32,50.66-72.47,65.87-108.96,54.71-17.4-5.32-31.02-15.76-40.49-31.02-1.57-2.53-1.58-3.35-1.45-3.62.05-.11.46-.69,3.01-.96,9.33-1,17.54-4.39,24.42-10.09,1-.82,1.82-1.25,2.4-1.25.08,0,.15,0,.22.02.63.14,1.34,1.03,2.1,2.65,3.29,6.94,7.35,14.07,14.78,19.29,7.67,5.39,16.91,7.27,25.33,5.13,8.14-2.05,14.8-7.54,18.77-15.44,3.61-7.19,5.47-14.73,5.53-22.41.09-9.66-.27-22.21-3.6-35.49.86.99,1.35,2.19,1.88,3.5.25.61.5,1.21.78,1.79.49,1.02,1.99,4.1,5.38,2.79,2.06-.8,2.82-2.8,1.98-5.22-3.05-8.81-9.55-14.92-18.3-17.19-10.36-2.69-18.12-.94-23.7,5.35-.53.59-.63,1.3-.75,2.06-.05.32-.1.69-.21,1.13l-.5,2.17,2.19-.41c2.14-.41,4.06-1.29,5.93-2.14,2.69-1.23,5.26-2.41,8.28-2.04-2.3,5.93-6.36,10.9-10.29,15.71-.81,1-1.62,1.99-2.41,2.98-8.53,10.74-17.99,19.1-27.38,24.18-12.72,6.88-26.45,13.91-42.2,17.66-13.5,3.21-38.22-2.86-50.93-26.42-10.85-20.11-11.31-41.18-8.67-66.63.78-7.56.05-15.05-2.25-22.9-.23-.77-.65-2.2-.43-2.58.08-.13.44-.49,2.14-.91,8.81-2.2,15.32-7.43,19.37-15.57,5.16,7.02,5.87,15.05,6.11,22.72.1,2.97.04,6.02-.02,8.96-.05,2.73-.11,5.56-.04,8.35.06,2.31-.7,3.28-3.38,4.3-.87.33-1.87.44-2.92.55-1.85.2-3.94.43-5.69,1.98l-.74.65.33.92c2.16,6.1,6.58,4.66,9.5,3.71.46-.15.91-.3,1.36-.43.52-.15,1-.39,1.46-.62.37-.19.95-.51,1.14-.49,0,0,.09.06.23.3.83,1.49-.66,2.88-1.34,3.4-1.04.81-2.18,1.5-3.39,2.22-.71.43-1.42.86-2.11,1.31-3.23,2.12-2.88,4.44-2.39,5.63,1.2,2.91,3.82,2.05,4.94,1.68.25-.08.49-.16.73-.22,3.19-.74,5.56-2.66,7.53-4.67,2.02,3.08,2.75,5.2,2.42,6.93-.39,2.03-2.36,4.06-6.6,6.79-.32.2-.68.38-1.05.56-1.16.57-2.6,1.29-3.01,2.8-.28,1-.03,2.08.75,3.29,2.37,3.67,5.81,1.52,7.46.49l.36-.23c2.43-1.5,4.44-3.15,5.97-4.91,1.88-2.17,3.28-2.35,6.26-.82,2.15,1.1,1.93,2.06,1.47,4.14-.12.55-.25,1.11-.32,1.67-.33,2.43-1.75,4.18-3.39,6.2l-.42.53c-1.52,1.89-1.5,4.08.04,5.58,1.53,1.48,3.37,1.37,5.47-.33,3.62-2.92,5.71-6.92,6.23-11.88.21-1.98,1.11-3.44,2.54-4.11,1.53-.72,3.46-.43,5.31.81,4.39,2.93,5.89,7.34,4.74,13.88-.06.35-.22.79-.38,1.27-.44,1.25-.99,2.81-.19,4.17.51.86,1.44,1.41,2.77,1.64,4.27.71,4.98-3.23,5.36-5.36.05-.3.11-.6.17-.88,1.4-6.71.01-12.62-4.13-17.6,2.47-.98,4.94-.96,7.1.06,3.01,1.42,5.13,4.64,5.83,8.84.05.33.01.89-.02,1.42-.1,1.4-.22,3.15,1.03,4.25.83.73,2,.94,3.58.62,1.69-.33,2.88-1.13,3.55-2.38.87-1.63.71-3.83-.49-6.72-1.13-2.73-2.6-5.21-4.15-7.83-.21-.36-.43-.72-.64-1.08,6.1.53,8.61,3.89,9.03,11.62.03.5-.05,1.1-.14,1.74-.26,1.94-.66,4.86,2.59,6.52,1.2.62,3.27.28,4.18-.67,2.51-2.64,1.94-5.79,1.48-8.31-.07-.37-.13-.74-.19-1.1-.1-.66-.35-1.25-.57-1.77-.21-.51-.35-.86-.38-1.14.18.05.41.16.77.34.17.08.34.17.51.24.42.19.87.47,1.33.75,1.35.82,2.87,1.76,4.42,1.38.55-.13,1.32-.5,1.91-1.48,2.17-3.61-1.49-6.37-3.67-8.02l-.21-.16c-12.98-9.84-26.13-11.66-40.18-5.55-3.68,1.6-4.54,1.52-4.72,1.42-.25-.25-.44-1.37.03-5.3,2.55-21.17,11.48-38.05,26.52-50.17,12.78-10.3,28.78-15.37,47.68-15.16,29.75.38,56.6,11.55,82.11,34.17,2.06,1.82,3.43,3.31,3.43,4.63,0,1.07-.87,2.36-2.67,3.95-4.61,4.1-8.24,9.64-10.79,16.46l-.5,1.33,1.32.52c3.6,1.43,4.98-1.01,5.64-2.17.13-.23.25-.45.39-.64,4.13-5.63,9.25-12.08,15.98-17.25,21.91-16.86,49.03-15.45,69.11,3.58,15.34,14.54,24.18,36.62,24.25,60.57.08,24-8.65,46.2-23.94,60.89-11.84,11.37-26.66,16.76-41.76,15.2-15.82-1.64-30.04-10.62-40.04-25.28ZM135.07,326.63c4.18,8.2,10.66,14.48,19.04,20.8-12.83-2.75-25.44-13.98-30.72-27.85,5.39-.75,8.76,1.32,11.67,7.05ZM184.26,297.64c3.05-1.7,5.66-4.13,8.18-6.47,1.39-1.29,2.82-2.62,4.28-3.79,10.68-8.51,18.33-19.74,26.24-31.7,6.24,21.19,6.99,36.95,2.57,52.24-3.27,11.31-10.25,17.29-20.19,17.29h-.09c-9.14-.04-16.45-4.6-22.99-14.37-2.54-3.8-3.43-6.25-2.96-8.19.42-1.75,2.04-3.39,4.96-5.02ZM297.43,195.76c-.06.51-.1,1.06-.15,1.62-.14,1.83-.29,3.9-1.34,4.39-.56.24-1.21-.35-2.48-1.8-.53-.6-1.08-1.23-1.68-1.72-6.86-5.62-13.13-10.56-20.43-14.22-3.66-1.83-4.61-3.81-4.05-8.46,2.03-17.06-.06-30.06-7-43.02.96.06,1.83.49,2.89,1.01l.27.13c23.09,11.37,37.06,36.89,33.97,62.07ZM169.11,174.55c4.45-27.21,31.05-48.48,60.35-48.48h.12c-4.89,4.12-9.48,8.11-13.22,13.04-4.52,5.97-10.06,14.05-12.83,23.69-.72,2.5-1.18,3.45-3.26,3.56-9.77.52-19.73,3.13-31.17,8.19ZM259.69,164.53c.02,6.09.03,10.49-1.07,11.25-1.04.72-4.92-.73-9.83-2.56-10.8-4.03-22.16-6.4-34.74-7.25-2.32-.16-2.77-.49-2.85-.62-.01-.02-.27-.47.56-2.39,5.56-12.92,13.73-23.31,24.28-30.87,2.8-2.01,5.4-3.02,7.74-3.02.59,0,1.16.06,1.71.19,2.87.65,5.44,3.02,7.65,7.04,5.03,9.18,6.13,19.41,6.53,28.22ZM84.03,175.91l-.34.5c-3.57,5.37-9.37,7.45-15.12,8.89-1.41.17-2.18-.59-3.51-2.22-.65-.8-.78-1.49.33-3.05,3.32-4.72,8.2-7.88,14.89-9.65.26-.07.51-.1.76-.1,1.81,0,3.32,1.65,3.94,2.43.58.73.25,1.48-.94,3.21ZM189.27,93.21c-.61-.17-1.31-.36-1.59-.62l-.24-.23c-.61-.58-2.23-2.12-2.23-2.7.03-.54,1.75-.68,2.58-.75l.41-.03c4.53-.42,8.96-.63,13.29-.63,15.55,0,29.88,2.7,43.5,8.17l.52.2c1.9.74,2.79,1.23,2.71,2.02-.09.82-1.2,1.04-3.22,1.16l-.3.02c-3.27.2-6.63.16-9.89.13-1.33-.02-2.67-.03-4-.03h-.07c-12.52.6-25.4-1.45-40.57-6.43-.29-.1-.6-.18-.91-.27ZM259.78,99.68c13.78-5.67,51.25-4,63.69,2.83-12.34,6.01-51.37,4.26-63.69-2.83Z" fill="#219379" />
    <path d="M222.19,219.05c-8.51,2.39-13.72,11.83-11.37,20.59l.58,2.19,1.74-1.45c1.88-1.56,2.49-3.52,3.03-5.26.24-.78.48-1.52.8-2.15,2.59-5.02,5.9-7.16,10.68-6.99,5.04.2,6.67,3.08,7.91,8.31.65,2.77.38,5.43-.25,8.56-.33,1.64-.08,3.05.7,4.07.48.63,1.41,1.41,3.09,1.52.12,0,.25.01.37.01,2.2,0,3.48-1.48,3.82-4.41.49-4.4.72-9.62-1.3-15.06-3.08-8.28-11.21-12.38-19.8-9.96Z" fill="#219379" />
  </g>
</svg>