<?xml version="1.0" standalone="no"?>
<!DOCTYPE svg PUBLIC "-//W3C//DTD SVG 20010904//EN"
 "http://www.w3.org/TR/2001/REC-SVG-20010904/DTD/svg10.dtd">
<svg version="1.0" xmlns="http://www.w3.org/2000/svg"
 width="700.000000pt" height="700.000000pt" viewBox="0 0 700.000000 700.000000"
 preserveAspectRatio="xMidYMid meet">
<metadata>
Created by potrace 1.14, written by Peter Selinger 2001-2017
</metadata>
<g transform="translate(0.000000,700.000000) scale(0.100000,-0.100000)"
fill="#000000" stroke="none">
<path d="M2850 5767 c-116 -27 -160 -66 -160 -141 0 -75 73 -120 327 -200 203
-63 443 -91 644 -75 67 5 124 7 127 4 12 -12 -20 -84 -53 -118 l-36 -37 -160
0 c-107 0 -185 -5 -237 -16 -432 -88 -742 -394 -827 -814 -21 -106 -52 -151
-176 -257 -108 -92 -173 -175 -239 -306 -73 -144 -120 -328 -120 -466 0 -33
-6 -65 -14 -76 -12 -17 -18 -18 -56 -6 -53 16 -100 60 -145 136 -67 113 -77
161 -85 435 -9 272 -19 336 -74 455 -78 169 -193 233 -369 205 -92 -14 -166
-49 -228 -107 -73 -67 -109 -127 -109 -178 0 -42 4 -50 77 -145 78 -102 91
-203 64 -520 -44 -522 67 -929 321 -1178 83 -81 139 -120 260 -183 126 -64
154 -90 224 -202 120 -191 224 -296 359 -362 102 -50 174 -66 305 -69 103 -2
126 -6 221 -38 167 -58 259 -72 449 -72 132 0 186 5 270 23 296 63 539 189
761 397 55 52 104 94 108 94 5 0 32 -33 62 -73 324 -438 841 -558 1270 -295
102 63 265 222 333 325 449 685 244 1695 -409 2013 -266 130 -537 130 -798 -1
l-78 -39 8 62 c4 35 7 126 7 203 -2 117 -6 157 -28 240 -93 345 -331 605 -681
741 -100 38 -109 49 -95 110 25 113 30 124 53 124 12 0 59 -11 104 -25 286
-84 719 -100 926 -34 86 28 150 81 150 126 0 73 -65 119 -234 163 -304 79
-592 89 -864 30 -116 -26 -135 -25 -197 6 -116 59 -264 104 -428 130 -131 21
-459 28 -530 11z m530 -142 c126 -21 231 -48 329 -86 151 -57 97 -74 -212 -66
-119 3 -237 11 -288 21 -120 22 -330 84 -351 103 -33 30 -22 42 45 46 114 8
381 -2 477 -18z m1151 -106 c144 -11 305 -40 371 -66 35 -14 38 -17 22 -26
-98 -55 -527 -62 -764 -12 -93 20 -187 56 -169 65 41 22 208 45 350 49 30 0
116 -4 190 -10z m-1113 -528 c-132 -125 -242 -291 -296 -448 l-27 -78 -111
-16 c-116 -17 -215 -43 -322 -86 -35 -14 -66 -22 -69 -19 -3 3 2 34 12 68 74
264 287 490 560 594 85 32 223 62 288 63 l48 1 -83 -79z m382 10 c56 -40 117
-170 146 -313 22 -102 26 -350 7 -369 -10 -10 -40 -4 -150 34 -76 25 -165 53
-198 61 -76 19 -260 46 -311 46 -63 0 -71 11 -49 62 75 173 223 359 360 454
82 56 141 64 195 25z m249 -56 c75 -37 204 -139 258 -202 184 -215 264 -463
238 -737 -9 -96 -22 -104 -74 -49 -53 55 -188 155 -282 209 -43 25 -82 51 -86
57 -5 7 -8 107 -9 222 0 193 -3 218 -26 305 -14 53 -39 123 -55 158 -17 34
-26 62 -21 62 5 0 30 -11 57 -25z m-2785 -557 c39 -17 42 -44 11 -89 -34 -48
-103 -95 -169 -114 -61 -18 -80 -19 -94 -2 -9 10 3 19 53 41 69 30 158 112
154 144 -3 36 3 40 45 20z m194 -155 c43 -96 52 -160 52 -379 l0 -193 -26 -20
c-15 -12 -40 -21 -56 -21 -32 0 -92 -23 -102 -39 -4 -6 0 -24 9 -41 15 -30 15
-30 -11 -30 -31 0 -84 50 -84 79 0 25 24 38 92 51 28 6 63 17 76 26 l24 16 -5
221 c-3 173 -8 235 -22 279 -15 48 -16 62 -5 88 7 16 16 30 20 30 4 0 21 -30
38 -67z m2279 16 c116 -41 267 -114 378 -184 172 -108 375 -275 375 -308 0 -9
-30 -49 -66 -89 -39 -44 -81 -105 -105 -153 -22 -44 -44 -84 -49 -89 -13 -13
-70 4 -70 22 0 38 76 165 141 237 38 41 69 79 69 84 0 19 -59 78 -155 155
-175 139 -339 237 -524 312 -124 51 -121 57 6 13z m1654 -399 c271 -99 498
-358 603 -687 48 -152 60 -244 60 -433 0 -141 -5 -195 -22 -277 -71 -329 -232
-588 -463 -742 -148 -99 -269 -136 -444 -134 -162 2 -223 20 -70 21 133 1 229
23 342 81 317 159 531 513 574 951 31 320 -61 668 -242 910 -107 144 -239 252
-379 312 -86 36 -61 36 41 -2z m-236 -103 c47 -11 44 -12 -65 -12 -136 -1
-231 -24 -350 -86 -174 -90 -328 -265 -375 -424 -14 -48 -58 -105 -71 -92 -15
15 -16 98 -1 140 24 70 110 198 180 264 152 146 335 222 537 221 52 0 117 -5
145 -11z m-1675 -78 c10 -6 5 -8 -19 -9 -56 0 -110 -22 -156 -62 -53 -47 -82
-104 -91 -181 -5 -45 -12 -62 -32 -78 -25 -19 -26 -19 -36 -2 -18 32 -12 144
11 193 23 50 72 104 116 126 58 31 164 37 207 13z m1814 -89 c103 -35 179 -82
256 -160 86 -86 130 -161 171 -292 l27 -88 -28 0 c-39 0 -57 21 -76 88 -58
209 -162 339 -348 432 -87 44 -88 50 -2 20z m-1752 -52 c42 -21 72 -127 59
-209 -5 -30 -5 -64 0 -76 8 -20 5 -23 -19 -23 -54 0 -75 35 -63 109 10 65 -3
148 -29 183 -11 15 -20 30 -20 33 0 7 48 -4 72 -17z m-2014 -20 c-2 -13 -28
-39 -68 -68 -58 -41 -65 -50 -68 -84 -3 -35 -5 -37 -35 -34 -44 4 -66 48 -43
83 21 31 92 80 153 104 63 25 65 25 61 -1z m85 -163 c9 -20 17 -47 17 -60 0
-28 -54 -84 -115 -119 -37 -20 -40 -25 -39 -65 1 -41 0 -42 -29 -39 -38 4 -72
46 -62 77 3 12 30 36 59 55 65 42 108 92 104 121 -3 21 26 65 42 65 3 0 14
-16 23 -35z m813 2 c3 -2 -37 -6 -88 -9 -67 -4 -114 -13 -168 -33 -41 -15 -88
-29 -103 -32 -25 -5 -28 -3 -25 18 6 45 166 80 306 67 41 -3 76 -9 78 -11z
m2120 -183 c34 -282 -5 -522 -126 -764 -159 -319 -399 -560 -694 -700 -206
-98 -363 -134 -586 -132 -85 0 -184 7 -219 14 -62 12 -55 13 145 14 201 0 213
1 324 31 259 70 461 186 650 376 189 189 337 441 396 675 37 146 50 297 36
431 l-12 113 27 45 c15 26 29 41 35 35 5 -5 16 -67 24 -138z m-1213 123 l48
-12 -78 -1 c-57 0 -90 -6 -124 -21 -57 -26 -119 -79 -119 -104 0 -13 -12 -21
-41 -29 -23 -6 -43 -9 -46 -7 -2 3 -1 21 2 41 9 46 80 111 144 130 58 18 151
19 214 3z m-831 -124 c30 -29 45 -86 51 -190 3 -59 2 -63 -18 -63 -12 0 -29 6
-39 13 -15 11 -16 17 -7 35 19 36 12 75 -26 152 -21 41 -39 79 -41 84 -9 18
54 -6 80 -31z m-722 -8 c22 -12 30 -22 30 -43 -1 -39 -23 -94 -53 -134 -16
-21 -27 -48 -27 -66 0 -27 -4 -32 -23 -32 -63 0 -77 57 -29 123 34 48 56 118
47 147 -8 25 14 26 55 5z m528 -18 c36 -32 62 -95 62 -149 0 -46 -1 -48 -29
-48 -38 0 -47 14 -54 84 -4 45 -14 71 -37 104 l-32 45 33 -7 c18 -3 44 -16 57
-29z m992 26 c0 -19 -78 -140 -141 -218 -119 -148 -196 -230 -277 -298 -103
-86 -163 -123 -349 -216 -353 -176 -561 -229 -738 -188 -48 12 -47 12 50 12
79 1 120 6 195 29 206 60 531 215 683 324 133 96 385 371 458 502 15 27 33 43
53 49 38 11 66 13 66 4z m-1244 -58 c46 -35 68 -99 59 -172 -3 -32 -7 -73 -8
-90 -2 -28 -6 -33 -28 -33 -14 0 -34 9 -44 20 -16 18 -17 26 -7 71 22 95 12
151 -36 202 l-26 27 29 0 c15 0 43 -11 61 -25z m629 -25 c3 -5 2 -10 -4 -10
-5 0 -13 5 -16 10 -3 6 -2 10 4 10 5 0 13 -4 16 -10z m751 -92 c49 -191 65
-385 44 -533 -31 -217 -92 -334 -204 -393 -44 -23 -63 -27 -141 -27 -79 0 -97
3 -150 29 -92 46 -203 166 -235 258 -18 48 -4 79 51 115 63 43 175 138 283
243 95 91 198 219 281 348 22 33 41 59 43 57 2 -2 14 -45 28 -97z m154 -4 c24
-54 24 -54 7 -54 -8 0 -17 21 -23 50 -6 28 -9 50 -7 50 2 0 13 -21 23 -46z
m-929 -751 c68 -123 165 -225 259 -272 52 -26 58 -31 30 -26 -137 27 -283 150
-365 307 -33 62 -34 68 -18 77 10 6 23 11 29 11 7 0 36 -44 65 -97z m-660
-144 c15 -10 48 -56 74 -100 45 -78 166 -213 245 -272 l35 -27 -33 10 c-19 5
-53 20 -76 34 -60 35 -196 181 -245 262 -22 39 -50 80 -61 92 -11 12 -20 24
-20 28 0 11 52 -6 81 -27z"/>
</g>
</svg>
